<?xml version="1.0" encoding="UTF-8"?> <svg xmlns="http://www.w3.org/2000/svg" width="48" height="48" viewBox="0 0 48 48" fill="none"> <path d="M40 24.0001C40 28.2436 38.3143 32.3132 35.3137 35.3138C32.3131 38.3144 28.2435 40.0001 24 40.0001C19.7565 40.0001 15.6869 38.3144 12.6863 35.3138C9.68571 32.3132 8 28.2436 8 24.0001C8 19.7566 9.68571 15.687 12.6863 12.6864C15.6869 9.6858 19.7565 8.00009 24 8.00009C25.52 8.00009 27 8.22009 28.4 8.62009L31.54 5.48009C29.1486 4.49522 26.5863 3.99227 24 4.00009C21.3736 4.00009 18.7728 4.51741 16.3463 5.5225C13.9198 6.52759 11.715 8.00078 9.85786 9.85795C6.10714 13.6087 4 18.6958 4 24.0001C4 29.3044 6.10714 34.3915 9.85786 38.1422C11.715 39.9994 13.9198 41.4726 16.3463 42.4777C18.7728 43.4828 21.3736 44.0001 24 44.0001C29.3043 44.0001 34.3914 41.893 38.1421 38.1422C41.8929 34.3915 44 29.3044 44 24.0001H40ZM15.82 20.1601L13 23.0001L22 32.0001L42 12.0001L39.18 9.16009L22 26.3401L15.82 20.1601Z" fill="#FFFFFF"></path> </svg> 