<?xml version="1.0" encoding="UTF-8"?> <svg xmlns="http://www.w3.org/2000/svg" width="24" height="24" viewBox="0 0 24 24" fill="none"> <path d="M17.7071 12.293C17.6143 12.2001 17.5041 12.1263 17.3828 12.076C17.2615 12.0257 17.1314 11.9998 17.0001 11.9998C16.8688 11.9998 16.7387 12.0257 16.6174 12.076C16.4961 12.1263 16.3859 12.2001 16.2931 12.293L14.6991 13.887C13.9601 13.667 12.5811 13.167 11.7071 12.293C10.8331 11.419 10.3331 10.04 10.1131 9.301L11.7071 7.707C11.8 7.61421 11.8738 7.50401 11.9241 7.3827C11.9744 7.26138 12.0003 7.13134 12.0003 7C12.0003 6.86867 11.9744 6.73862 11.9241 6.61731C11.8738 6.49599 11.8 6.38579 11.7071 6.293L7.70709 2.293C7.6143 2.20006 7.5041 2.12632 7.38278 2.07601C7.26147 2.0257 7.13142 1.9998 7.00009 1.9998C6.86876 1.9998 6.73871 2.0257 6.6174 2.07601C6.49608 2.12632 6.38588 2.20006 6.29309 2.293L3.58109 5.005C3.20109 5.385 2.98709 5.907 2.99509 6.44C3.01809 7.864 3.39509 12.81 7.29309 16.708C11.1911 20.606 16.1371 20.982 17.5621 21.006H17.5901C18.1181 21.006 18.6171 20.798 18.9951 20.42L21.7071 17.708C21.8 17.6152 21.8738 17.505 21.9241 17.3837C21.9744 17.2624 22.0003 17.1323 22.0003 17.001C22.0003 16.8697 21.9744 16.7396 21.9241 16.6183C21.8738 16.497 21.8 16.3868 21.7071 16.294L17.7071 12.293ZM17.5801 19.005C16.3321 18.984 12.0621 18.649 8.70709 15.293C5.34109 11.927 5.01509 7.642 4.99509 6.419L7.00009 4.414L9.58609 7L8.29309 8.293C8.17555 8.41045 8.08913 8.55534 8.04164 8.71457C7.99415 8.8738 7.98709 9.04236 8.02109 9.205C8.04509 9.32 8.63209 12.047 10.2921 13.707C11.9521 15.367 14.6791 15.954 14.7941 15.978C14.9566 16.013 15.1254 16.0065 15.2847 15.9591C15.4441 15.9117 15.589 15.8251 15.7061 15.707L17.0001 14.414L19.5861 17L17.5801 19.005Z" fill="black"></path> </svg> 